<?xml version="1.0" encoding="utf-8"?>
<!-- Generator: Adobe Illustrator 24.3.0, SVG Export Plug-In . SVG Version: 6.00 Build 0)  -->
<svg version="1.1" id="Layer_3" xmlns="http://www.w3.org/2000/svg" xmlns:xlink="http://www.w3.org/1999/xlink" x="0px" y="0px"
	 viewBox="0 0 24 24" style="enable-background:new 0 0 24 24;" xml:space="preserve">
<style type="text/css">
	.st0{fill:#FFFFFF;}
</style>
<circle cx="12" cy="12" r="11"/>
<g>
	<path class="st0" d="M19.62,17.45c0.23,0.23,0.33,0.58,0.33,1.08s-0.1,0.85-0.33,1.08c-0.23,0.23-0.58,0.33-1.08,0.33
		s-0.85-0.1-1.08-0.33c-0.23-0.23-0.33-0.58-0.33-1.08c0-0.66-0.14-1.13-0.44-1.43c-0.3-0.3-0.77-0.44-1.43-0.44
		c-0.5,0-0.85-0.1-1.08-0.33c-0.23-0.23-0.33-0.58-0.33-1.08c0-0.66-0.14-1.13-0.44-1.43s-0.77-0.44-1.43-0.44
		c-0.5,0-0.85-0.1-1.08-0.33c-0.23-0.23-0.33-0.58-0.33-1.08c0-0.66-0.14-1.13-0.44-1.43S9.36,10.1,8.7,10.1
		c-0.5,0-0.85-0.1-1.08-0.33C7.39,9.54,7.29,9.19,7.29,8.69c0-0.66-0.14-1.13-0.44-1.43c-0.3-0.3-0.77-0.44-1.43-0.44
		c-0.5,0-0.85-0.1-1.08-0.33C4.11,6.26,4.01,5.91,4.01,5.41c0-0.5,0.1-0.85,0.33-1.08C4.57,4.1,4.92,4,5.42,4
		c0.5,0,0.85,0.1,1.08,0.33c0.23,0.23,0.33,0.58,0.33,1.08c0,0.66,0.14,1.13,0.44,1.43c0.3,0.3,0.77,0.44,1.43,0.44
		c0.5,0,0.85,0.1,1.08,0.33c0.23,0.23,0.33,0.58,0.33,1.08c0,0.66,0.14,1.13,0.44,1.43c0.3,0.3,0.77,0.44,1.43,0.44
		c0.5,0,0.85,0.1,1.08,0.33c0.23,0.23,0.33,0.58,0.33,1.08c0,0.66,0.14,1.13,0.44,1.43c0.3,0.3,0.77,0.44,1.43,0.44
		c0.5,0,0.85,0.1,1.08,0.33c0.23,0.23,0.33,0.58,0.33,1.08c0,0.66,0.14,1.13,0.44,1.43c0.3,0.3,0.77,0.44,1.43,0.44
		C19.04,17.12,19.39,17.22,19.62,17.45z M9.78,10.89c0.23,0.23,0.33,0.58,0.33,1.08s-0.1,0.85-0.33,1.08
		c-0.23,0.23-0.58,0.33-1.08,0.33c-0.66,0-1.13,0.14-1.43,0.44c-0.3,0.3-0.44,0.77-0.44,1.43c0,0.5-0.1,0.85-0.33,1.08
		c-0.23,0.23-0.58,0.33-1.08,0.33s-0.85-0.1-1.08-0.33c-0.23-0.23-0.33-0.58-0.33-1.08s0.1-0.85,0.33-1.08
		c0.23-0.23,0.58-0.33,1.08-0.33c0.66,0,1.13-0.14,1.43-0.44c0.3-0.3,0.44-0.77,0.44-1.43c0-0.5,0.1-0.85,0.33-1.08
		c0.23-0.23,0.58-0.33,1.08-0.33C9.2,10.56,9.55,10.66,9.78,10.89z M6.5,17.45c0.23,0.23,0.33,0.58,0.33,1.08s-0.1,0.85-0.33,1.08
		c-0.23,0.23-0.58,0.33-1.08,0.33s-0.85-0.1-1.08-0.33c-0.23-0.23-0.33-0.58-0.33-1.08s0.1-0.85,0.33-1.08
		c0.23-0.23,0.58-0.33,1.08-0.33C5.92,17.12,6.27,17.22,6.5,17.45z M19.62,7.61c0.23,0.23,0.33,0.58,0.33,1.08s-0.1,0.85-0.33,1.08
		c-0.23,0.23-0.58,0.33-1.08,0.33c-0.66,0-1.13,0.14-1.43,0.44c-0.3,0.3-0.44,0.77-0.44,1.43c0,0.5-0.1,0.85-0.33,1.08
		c-0.23,0.23-0.58,0.33-1.08,0.33s-0.85-0.1-1.08-0.33c-0.23-0.23-0.33-0.58-0.33-1.08s0.1-0.85,0.33-1.08
		c0.23-0.23,0.58-0.33,1.08-0.33c0.66,0,1.13-0.14,1.43-0.44c0.3-0.3,0.44-0.77,0.44-1.43c0-0.5,0.1-0.85,0.33-1.08
		c0.23-0.23,0.58-0.33,1.08-0.33S19.39,7.38,19.62,7.61z M17.46,6.49c-0.23-0.23-0.33-0.58-0.33-1.08c0-0.5,0.1-0.85,0.33-1.08
		C17.69,4.1,18.04,4,18.54,4s0.85,0.1,1.08,0.33c0.23,0.23,0.33,0.58,0.33,1.08c0,0.5-0.1,0.85-0.33,1.08
		c-0.23,0.23-0.58,0.33-1.08,0.33S17.69,6.71,17.46,6.49z"/>
</g>
</svg>
